ply
format ascii 1.0
element vertex 320
property double x
property double y
property double z
element face 320
property list uchar int vertex_index
end_header
-0.4110357347546705 -0.0013125480185777 -0.0605645057662813
-2.1270568435126131 -1.7458397676822286  0.9421275808081248
 1.3345059667561059 -1.7266851972046469  0.9227479247895193
1.3154293550702703 1.7349041786345671 0.9366990550920857
-2.1461334551984486  1.7157496081569854  0.9560787111106911
-0.4022786482793177 -0.0073376366123658 -0.0653827206650194
-1.2023225302909846 -1.7448150795779431  1.7607051765542419
 1.5968571071352766 -1.7248680063994291 -0.2758004163088971
 1.5737047253959540  1.7367239956465388 -0.2737179504069126
-1.2254749120303075  1.7167769224680247  1.7627876424562263
-0.4071886689694449 -0.0124142647540923 -0.0607837899646512
 0.0359898757697774 -1.7359431113633539  1.8953696239366555
 1.0881011017354254 -1.7312894733808881 -1.4025387844221395
 1.0546828079938504  1.7302144490397986 -1.4083155294099661
0.0025715820282025 1.7255608110573328 1.8895928789488292
-0.4095254067285470 -0.0109815792908726 -0.0478687552927612
 1.1108450862609207 -1.7263218339757296  1.2710612887330077
-0.0106930351782962 -1.7447180658958885 -2.0038392256159065
-0.0375757958639585  1.7168324612909467 -2.0140775352183113
1.0839623255752584 1.7352286932111056 1.2608229791306027
-0.4083796589322194 -0.0119146684331162 -0.0375351284139390
 1.6010378616946999 -1.7228304831651950  0.1312943388789348
-1.2441481465420197 -1.7561799063876478 -1.8402441346431466
-1.2780755124173426  1.7053105969138151 -1.8498351445799317
1.5671104958193769 1.7386600201362679 0.1217033289421498
-0.4274565183950542 -0.0033775102018053 -0.0398788739414077
 1.3055915940291736 -1.7311352277504359 -1.0423221869537336
-2.1558367883068983 -1.7541470623711188 -1.0085055120917152
-2.1791299919052878  1.7073250560996911 -1.0372762922057506
 1.2822983904307836  1.7303368907203742 -1.0710929670677691
-0.4342649832298696 -0.0021895048030156 -0.0391166475435967
 0.3808487101731701 -1.7453653194121446 -1.8530689160770921
-2.4080220138926873 -1.7454522202564564  0.1976284372565663
-2.4334441546050449  1.7159532877993968  0.1632019701819128
 0.3554265694608127  1.7160401886437087 -1.8874953831517456
-0.4347678100586834 -0.0134574456291910 -0.0545860030744236
-0.8653913233681100 -1.7535989526662594 -1.9987994717040822
-1.8951313128979665 -1.7473660503821495  1.3061598719135086
-1.9133389583511904  1.7142346150362633  1.2939585238362916
-0.8835989688213338  1.7080017127521534 -2.0110008197812990
-0.4377512050878347 -0.0165845758674204 -0.0605185965657643
-1.9377445698665010 -1.7566608749163446 -1.3703466255212209
-0.8159652152668158 -1.7446996576875631  1.9045010910832276
-0.8300728123973742  1.7169328361761047  1.8966901242124490
-1.9518521669970594  1.7049716189473232 -1.3781575923919993
-0.4252382395413055 -0.0079853268075240 -0.0664589606872233
-2.4051564311506377 -1.7514614087269549 -0.2500623175150990
 0.4212691958451502 -1.7342938539174284  1.7484829054399329
0.3993851940618948 1.7273068126358042 1.7496969306527732
-2.4270404329338935  1.7101392578262777 -0.2488482923022590
-0.9387044019046082 -0.0032037709710570 -0.0352015926777327
-0.4498803788757103 -1.7561069578457043  1.8836200713347704
 0.4017464942693267 -1.7725624493978849 -1.4716176912996504
 0.5097915664090222  1.6874052550590184 -1.4611628084880051
-0.3418353067360146  1.7038607466111990  1.8940749541464159
-0.9310851584159952  0.0021349398708952 -0.0469966269316907
 0.5702398255618111 -1.7876517065589201  1.1924315230934406
-0.6893727402824488 -1.7283255687306636 -2.0313885946257035
-0.5705003051127773  1.7312600150774071 -2.0141696940436526
0.6891122607314826 1.6719338772491508 1.2096504236754910
-0.9207013911544569 -0.0098785243003146 -0.0468226256764393
 1.0249700773887804 -1.7996982845686527  0.0195313386282557
-1.8959881991816947 -1.6954063347570196 -1.8352693228477894
-1.7940116589275257  1.7645947280126613 -1.8013136319623788
1.1269466176429495 1.6603027782010282 0.0534870295136664
-0.9119382407080815 -0.0068217860290276 -0.0513391475830068
 0.6966143174531091 -1.7771707420718537 -1.1791327137112799
-2.7554812562627946 -1.6804690739474055 -0.9407118769833078
-2.6570400904414280  1.7797316916361570 -0.9188130916355067
 0.7950554832744755  1.6830300235117088 -1.1572339283634787
-0.9166712227212592 -0.0043901901982693 -0.0434307419091641
-0.2721203204563651 -1.7424569492305444 -1.9294777089451693
-2.9336301767979500 -1.6824609394274601  0.2831960856927465
-2.8382844792350110  1.7778329142693747  0.3040575836539187
-0.1767746228934262  1.7178369044662904 -1.9086162109839970
-0.9155049979662653 -0.0010325563990973 -0.0387128829048236
-1.5027669416254983 -1.7118111877752860 -1.9679238538163406
-2.3619862497132074 -1.6952549472753908  1.3853771511014761
-2.2646498509991546  1.7650374486349436  1.3932332546870334
-1.4054305429114458  1.7484812081350487 -1.9600677502307833
-0.9181303392438402 -0.0015530184169717 -0.0320221691608649
-2.5303786358543423 -1.6883368219914825 -1.2765746656046275
-1.2626778883990959 -1.7236647863970258  1.9444261583482971
-1.1664158085098917  1.7366665800467895  1.9444928931086154
-2.4341165559651383  1.7719945444523328 -1.2765079308443092
-0.9288988910499600 -0.0146118608359263 -0.0236766421740940
-2.9803081850986981 -1.6815827107785224 -0.1038213866136269
-0.0620187588123701 -1.7671924815342288  1.7561295131817463
0.0479706749371401 1.6927041038166357 1.7428065550290319
-2.8703187513491883  1.7783138745723421 -0.1171443447663414
-0.9463853773052140 -0.0091481615746982 -0.0229290597232081
-2.6552774559741712 -1.6869255748052558  1.0987865465892968
 0.7960544485382706 -1.7940524131555682  0.8538549572166008
0.9032053447834925 1.6659571672999094 0.8503985626783630
-2.5481265597289493  1.7730840056502217  1.0953301520510590
-0.9367696668378930 -0.0031044320793865 -0.0331808363633644
-1.6840739896983081 -1.7131807131143271  1.8404974840547927
 0.9751435272687362 -1.7972783619545571 -0.3741468081484099
 1.0886755530903138  1.6625259118507689 -0.3692047292034439
-1.5705419638767304  1.7466235606909990  1.8454395629997586
-1.4570853659663914  0.0032646634439958 -0.0355408261215800
 0.0465550420406369 -1.7450494615048462  1.2590472667643331
-1.2044610869913002 -1.7830192563317915 -1.9684403780851087
-1.0966582944619490  1.6759885905383018 -2.0509196560102056
0.1543578345699881 1.7139583853652471 1.1765679888392362
-1.4551244032643345  0.0026721255064146 -0.0421978876452419
 0.4853655275739830 -1.7885480348723766  0.0975313208146877
-2.4213611972436722 -1.7383574956403940 -1.7817185867482950
-2.3107020407860368  1.7206463891944717 -1.8604982406091217
0.5960246840316183 1.6704558499624891 0.0187516669538610
-1.4570288120211958 -0.0032345825221469 -0.0465463659989031
 0.1653499208393916 -1.8056923364309030 -1.1013109742717819
-3.2898119497019067 -1.6976167652446599 -0.9187303692137002
-3.1852977139246121  1.7617691620263993 -0.9886255678463288
 0.2698641566166862  1.6536935908401560 -1.1712061729044105
-1.4582573310247369  0.0102407984795364 -0.0437437546675423
-0.7861200811828584 -1.7877242802062649 -1.8628226918031798
-3.4754853686651161 -1.6613470598216702  0.3130685524290280
-3.3880198292974719  1.7979729541788363  0.2202548776191057
-0.6986545418152139  1.6715957337942413 -1.9556363666131020
-1.4597883029169405  0.0132438658826367 -0.0427369425611635
-2.0154998904301626 -1.7573387489602668 -1.9268061880637701
-2.9161550724700041 -1.6445839720399036  1.4137425934120320
-2.8344192646823965  1.8148242300895223  1.3190129420983774
-1.9337640826425551  1.7020694531691591 -2.0215358393774250
-1.4325570065662501  0.0088365011119956 -0.0306310608151039
-3.0271138626309639 -1.7098539685836529 -1.2541450936253244
-1.7891949561422189 -1.6726342616511058  1.9783974091805729
-1.7054098655186833  1.7872742082153370  1.9064738608204805
-2.9433287720074288  1.7500545012827899 -1.3260686419854166
-1.4176587015807085  0.0128949350174675 -0.0217220499179084
-3.4609975487205515 -1.6634400379003518 -0.1120686086293131
-0.5715593334775142 -1.7131412290117309  1.7936690831762223
-0.4750070530194606  1.7467263263364776  1.7375111393017182
-3.3644452682624979  1.7964275174478568 -0.1682265525038171
-1.4335465520526578  0.0022692083843953 -0.0219664799711177
-3.1551588613303316 -1.6585392009965758  1.1055358793178576
 0.3003285241519753 -1.7559267215843377  0.9231018976163488
0.3938304064172709 1.7036504439670814 0.8473206883286545
-3.0616569790650363  1.8010379645548433  1.0297546700301632
-1.4470163793917472 -0.0067917701545808 -0.0225480309750189
-2.1957114019446218 -1.6647108885252222  1.8968933061006492
 0.4761641909062315 -1.7998823175824952 -0.2999155292711420
 0.5714801068906785  1.6591180442259417 -0.3968223465865300
-2.1003954859601750  1.7942894732832149  1.7999864887852612
-1.4511868968917121  0.0022696722817433 -0.0239014511393790
-0.9674283112822711 -1.6958251289692283  1.9448409807553411
-0.1039116471162156 -1.8050605501164236 -1.4056166225501192
 0.0006779717624688  1.6539646961931920 -1.4914357060255288
-0.8628386924035868  1.7632001173403873  1.8590218972799319
-1.8181590054317804 -0.0115990974556045  0.0836279074032615
-0.1457397124701822 -1.8131223608382381 -0.8915760334984231
-3.6052026646231945 -1.7579187865047519 -0.7809948138694889
-3.5550483460227733  1.6998207835943397 -0.9380972255942053
-0.0955853938697608  1.6446172092608535 -1.0486784452231392
-1.8161687500530008 -0.0129965695599579  0.0755939109893682
-1.0985337526638141 -1.8402499909780523 -1.6963090295712173
-3.8243942315408872 -1.6953681449934643  0.4325060066574351
-3.7654905507975798  1.7621059674668844  0.2726226862814290
-1.0396300719205067  1.6172241214822967 -1.8561923499472233
-1.8186566991556825 -0.0118820582247431  0.0799019430942728
-2.3303748681027798 -1.8232169105847051 -1.7777055651067208
-3.2860110169299226 -1.6522914120633740  1.5450498551857674
-3.2287176437793779  1.8051404301938796  1.3836742572420455
-2.2730814949522360  1.6342149316725485 -1.9390811630504428
-1.8283913707174593 -0.0067372909571811  0.0528554309301192
-3.3964453006574091 -1.7726574414155867 -1.1371983415247242
-2.1855111350724488 -1.6377738854735835  2.1029566595560181
-2.1340250443561199  1.8196650665271195  1.9397860932026458
-3.3449592099410803  1.6847815105851163 -1.3003689078780964
-1.8268488968936962 -0.0055786400299912  0.0494442027731600
-3.8477441944218271 -1.7108443455928397  0.0101230101527614
-0.9586111488330182 -1.6643004201230773  1.9164030173819326
-0.9079281496535858  1.7932412400253255  1.7551688398467307
-3.7970611952423945  1.7466973145555629 -0.1511111673824405
-1.8203225299936483  0.0040321066190783  0.0551604148854655
-3.5357232400111958 -1.6571556102671665  1.1915366112512298
-0.0771987462980741 -1.7140376954301766  1.0554031735992220
-0.0258185788294427  1.7444285019180314  0.9156491101027682
-3.4843430725425644  1.8013105870810417  1.0517825477547760
-1.8020232710092747 -0.0003971388938887  0.0523482460055054
-2.5811268690585081 -1.6413705182907199  1.9742480971805980
 0.1525257089322016 -1.7699403389983197 -0.1456040066514148
 0.2031044361790633  1.6883416965368463 -0.2901263686508135
-2.5305481418116464  1.8169115172444459  1.8297257351811993
-1.7905490537403699 -0.0120254062875134  0.0434168203423877
-1.3457458443707866 -1.6571267280826070  2.0656153349031410
-0.3614480876889710 -1.8225361144567132 -1.2490425990567928
-0.3182993893070185  1.6351773579523612 -1.4087776629024393
-1.3025971459888339  1.8005867443264676  1.9058802710574940
-1.7925340373703542 -0.0136208946999802  0.0749367219719439
-0.2709331360425589 -1.6989449811815904  1.4306315648228454
-1.4762285423709685 -1.8391098944063788 -1.8114011831082073
-1.4391296308487309  1.6185083025840477 -1.9746789607682145
-0.2338342245203213  1.7586732158088361  1.2673537871628380
-1.8042971685395253 -0.0027793837960511  0.0811394748856092
 0.1667242237930608 -1.7522394489356028  0.3001354515116473
-2.7139033897624869 -1.8122644719795411 -1.6185987944700346
-2.6659027036304654  1.6443788724259063 -1.7987994653384627
0.2147249099250821 1.7044038954698446 0.1199347806432192
-2.4285497355078407 -0.0231316378390540 -0.0458962128805665
-3.0002141336669270 -1.8243513831655724 -1.8958427881233342
-3.6690399488268763 -1.7728367720538423  1.5002104847053894
-3.8171660194283081  1.6846994146563874  1.4185909841524209
-3.1483402042683588  1.6331848035446572 -1.9774622886763027
-2.4385828346021827 -0.0103644557681128 -0.0316774826145193
-3.9841981736482301 -1.8480820146877213 -1.1395414109348208
-2.5548654815947427 -1.6873225463904495  2.0091605449277790
-2.7125538853587101  1.7691628938655377  1.9042685686388494
-4.1418865774121976  1.6084034255682660 -1.2444333872237499
-2.4455901659831936  0.0023982288610463 -0.0311203455509492
-3.9829501620572829 -1.7573443037866847  1.2071548854016809
-0.5485510781957275 -1.6473076060130087  0.7876856779656352
-0.6681838245733014  1.8115421203033639  0.7155321276138831
-4.1025829084348562  1.7015054225296879  1.1350013350499286
-2.4517778167626201 -0.0136612371067440 -0.0410662882205199
-2.9733084039669482 -1.7068535205940687  1.9222474472987043
-0.4426429048382321 -1.6855638403170341 -0.4396243610571933
-0.5681059730475893  1.7722903804676797 -0.5428850234116519
-3.0987714721763058  1.7510007001906454  1.8189867849442458
-2.4500792710978709 -0.0117259123533408 -0.0477371368375646
-1.7416704830005905 -1.6645921043130754  1.8912536900495120
-1.0731007413185389 -1.7358258561365407 -1.5044936225727619
-1.1976057656225525  1.7222427582572051 -1.6015478091956137
-1.8661755073046040  1.7934765100806702  1.7941995034266598
-2.4412917322521270 -0.0153092601306553 -0.0570004386966704
-0.7458033582439030 -1.6512832443826626  1.1440005533023880
-2.1910992366019109 -1.7927683495760942 -1.9983331888521283
-2.3206358213304479  1.6651416868035094 -2.0944477642042623
-0.8753399429724398  1.8066267919969410  1.0478859779502536
-2.4355257802148129 -0.0160113823494628 -0.0595776776304737
-0.3678572474943045 -1.6645904579216830 -0.0388664074611854
-3.3877117026874557 -1.8380484902903176 -1.7221818676557163
-3.5281632329843520  1.6191986255895190 -1.8264666002432675
-0.5083087777912003  1.7926566579581538 -0.1431511400487365
-2.4312814517383092 -0.0225826319158205 -0.0578588168921869
-0.7630578399807604 -1.7149015460715522 -1.2182819122735775
-4.1958685830716487 -1.8492287071658466 -0.7929277375142603
-4.3421599500670807  1.6082091564650829 -0.8817073136951534
-0.9093492069761924  1.7425363175593773 -1.3070614884544707
-2.4281311432086010 -0.0245978665421870 -0.0531775222603301
-1.7735778371290269 -1.7739827156246464 -1.9252639801009399
-4.3016241824431880 -1.8241925066925739  0.4389737852047575
-4.4458065252935004  1.6335310357376125  0.3582339919966875
-1.9177601799793389  1.6837408268055398 -2.0060037733090099
-2.9972155822155786 -0.0226228666526822 -0.1269135929004300
-4.4055893312686107 -1.8388323854902211  1.1812765511502676
-1.0262342114067140 -1.6893060205783452  0.4459124249294703
-1.1633537594735621  1.7688759299484271  0.5189561423995127
-4.5427088793354589  1.6193495650365510  1.2543202686203099
-2.9965984694083652 -0.0116008478595095 -0.1330546882051122
-3.3414219795862943 -1.7947391284401935  1.7891861149945014
-1.0380914958284926 -1.6612709238000403 -0.7915142703689826
-1.1609772428651419  1.7975250465147929 -0.7223110408044244
-3.4643077266229438  1.6640568418746398  1.8583893445590596
-3.0046142694862041 -0.0195821675474082 -0.1317573383847501
-2.1147851312466357 -1.7506255762695238  1.6585465207935475
-1.7779480353773858 -1.6778167616643000 -1.7859271988674399
-1.9053622418104901  1.7809758838036980 -1.7252756223952754
-2.2421993376797400  1.7081670691984743  1.7191980972657119
-3.0290609101086066 -0.0218830236097492 -0.1364752929926973
-1.2281461850021889 -1.7025264760440599  0.8256259620806543
-2.9771901648777050 -1.7209445140060098 -2.1616245279874109
-3.1052121521579714  1.7379416665847196 -2.1079932072472420
-1.3561681722824557  1.7563597045466692  0.8792572828208229
-3.0324947011022507 -0.0315441303177481 -0.1381847910690011
-0.9889921386305693 -1.6903635592846078 -0.3949151273810474
-4.1540718074652077 -1.7599368455246114 -1.7951257564809830
-4.2679558250967542  1.6988010368103095 -1.7095556103873197
-1.1028761562621161  1.7683743230503131 -0.3093449812873842
-3.0350977151739915 -0.0230002497785562 -0.1360202475362122
-1.4998581689953805 -1.6826676688808826 -1.5078943963372891
-4.8823609003749322 -1.8011551700137791 -0.7813990127606273
-4.9902380380470817  1.6582789624482919 -0.7194509345247275
-1.6077353066675297  1.7767664635811882 -1.4459463181013892
-3.0360364729511611 -0.0241695255470973 -0.1357786774037684
-2.5716031801103170 -1.7041888647178776 -2.1245802821000095
-4.8810199102209166 -1.8247502919585818  0.4513115764647089
-4.9884983534543457  1.6346298339975791  0.5168637423533671
-2.6790816233437460  1.7551912612382834 -2.0590281162113513
-3.0357959133480579 -0.0231221762454177 -0.1346885176911718
-3.7994052836998087 -1.7458858209031207 -1.9900809938228052
-4.1528817094506039 -1.8183788594311094  1.4527316258061627
-4.2606664872470379  1.6410612147433581  1.5145084252067329
-3.9071900614962431  1.7135542532713468 -1.9283041944222348
-3.7744049987682224 -0.0057063137808537  0.0146963491801890
-4.3096049136124419 -1.8162988198032648  1.8664012162190451
-1.8127442171637143 -1.6932994570649260 -0.5281169769397769
-1.8547190317383324  1.7655252336866414 -0.3942161492283706
-4.3515797281870601  1.6425258709483024  2.0003020439304513
-3.7839112264610542 -0.0121087660679468  0.0100366301125197
-3.0796878068620925 -1.7977771697583673  1.8290893543839226
-2.4720533952213000 -1.6712387010893635 -1.5764837245280392
-2.5195141929984057  1.7880229795355107 -1.4564185101327642
-3.1271486046391983  1.6614845108665068  1.9491545687791976
-3.7882965769814612 -0.0132598996352382  0.0091732067183603
-2.1093974160262370 -1.7612380711011919  1.0671736820261706
-3.6203068011533297 -1.6682215138928602 -2.0459694737077627
-3.6676112188102010  1.7908199224309498 -1.9196595693529666
-2.1567018336831087  1.6978033652226181  1.1934835863809670
-3.7921011537878475 -0.0087674965279822  0.0021534477768135
-1.7731046244527517 -1.7126801458410683 -0.1154466558492551
-4.8197888023189295 -1.6921565016538662 -1.7587524272874926
-4.8611887892057632  1.7671866715235973 -1.6387923949879817
-1.8145046113395855  1.7466630273363952  0.0045133764502557
-3.8066642829992214 -0.0035614840666843 -0.0024232652357132
-2.1939257502024150 -1.6787436973441403 -1.2619208092906475
-5.6285948870100384 -1.7300246263032308 -0.8334610736569286
-5.6669327819981374  1.7297862190271847 -0.7266964802049278
-2.2322636451905140  1.7810671479862752 -1.1551562158386468
-3.8018246234500879 -0.0152063567524845 -0.0007806477523944
-3.2135417306639513 -1.6659902814757339 -1.9812681529539913
-5.7320662788117840 -1.7791362615960598  0.3909442417595213
-5.7615356945545342  1.6798256193856864  0.5246372390482982
-3.2430111464067011  1.7929715995060123 -1.8475751556652145
-3.8196633026182099 -0.0028082766654673  0.0090769354706995
-4.4392531733086891 -1.6844191525949324 -1.9356051311979505
-5.1305270241180896 -1.7866956705545165  1.4547989059537061
-5.1595562916617537  1.6734520384892628  1.5532605294321269
-4.4682824408523532  1.7757285564488470 -1.8371435077195297
3 0 1 2
3 0 2 3
3 0 3 4
3 0 4 1
4 1 2 3 4
3 5 6 7
3 5 7 8
3 5 8 9
3 5 9 6
4 6 7 8 9
3 10 11 12
3 10 12 13
3 10 13 14
3 10 14 11
4 11 12 13 14
3 15 16 17
3 15 17 18
3 15 18 19
3 15 19 16
4 16 17 18 19
3 20 21 22
3 20 22 23
3 20 23 24
3 20 24 21
4 21 22 23 24
3 25 26 27
3 25 27 28
3 25 28 29
3 25 29 26
4 26 27 28 29
3 30 31 32
3 30 32 33
3 30 33 34
3 30 34 31
4 31 32 33 34
3 35 36 37
3 35 37 38
3 35 38 39
3 35 39 36
4 36 37 38 39
3 40 41 42
3 40 42 43
3 40 43 44
3 40 44 41
4 41 42 43 44
3 45 46 47
3 45 47 48
3 45 48 49
3 45 49 46
4 46 47 48 49
3 50 51 52
3 50 52 53
3 50 53 54
3 50 54 51
4 51 52 53 54
3 55 56 57
3 55 57 58
3 55 58 59
3 55 59 56
4 56 57 58 59
3 60 61 62
3 60 62 63
3 60 63 64
3 60 64 61
4 61 62 63 64
3 65 66 67
3 65 67 68
3 65 68 69
3 65 69 66
4 66 67 68 69
3 70 71 72
3 70 72 73
3 70 73 74
3 70 74 71
4 71 72 73 74
3 75 76 77
3 75 77 78
3 75 78 79
3 75 79 76
4 76 77 78 79
3 80 81 82
3 80 82 83
3 80 83 84
3 80 84 81
4 81 82 83 84
3 85 86 87
3 85 87 88
3 85 88 89
3 85 89 86
4 86 87 88 89
3 90 91 92
3 90 92 93
3 90 93 94
3 90 94 91
4 91 92 93 94
3 95 96 97
3 95 97 98
3 95 98 99
3 95 99 96
4 96 97 98 99
3 100 101 102
3 100 102 103
3 100 103 104
3 100 104 101
4 101 102 103 104
3 105 106 107
3 105 107 108
3 105 108 109
3 105 109 106
4 106 107 108 109
3 110 111 112
3 110 112 113
3 110 113 114
3 110 114 111
4 111 112 113 114
3 115 116 117
3 115 117 118
3 115 118 119
3 115 119 116
4 116 117 118 119
3 120 121 122
3 120 122 123
3 120 123 124
3 120 124 121
4 121 122 123 124
3 125 126 127
3 125 127 128
3 125 128 129
3 125 129 126
4 126 127 128 129
3 130 131 132
3 130 132 133
3 130 133 134
3 130 134 131
4 131 132 133 134
3 135 136 137
3 135 137 138
3 135 138 139
3 135 139 136
4 136 137 138 139
3 140 141 142
3 140 142 143
3 140 143 144
3 140 144 141
4 141 142 143 144
3 145 146 147
3 145 147 148
3 145 148 149
3 145 149 146
4 146 147 148 149
3 150 151 152
3 150 152 153
3 150 153 154
3 150 154 151
4 151 152 153 154
3 155 156 157
3 155 157 158
3 155 158 159
3 155 159 156
4 156 157 158 159
3 160 161 162
3 160 162 163
3 160 163 164
3 160 164 161
4 161 162 163 164
3 165 166 167
3 165 167 168
3 165 168 169
3 165 169 166
4 166 167 168 169
3 170 171 172
3 170 172 173
3 170 173 174
3 170 174 171
4 171 172 173 174
3 175 176 177
3 175 177 178
3 175 178 179
3 175 179 176
4 176 177 178 179
3 180 181 182
3 180 182 183
3 180 183 184
3 180 184 181
4 181 182 183 184
3 185 186 187
3 185 187 188
3 185 188 189
3 185 189 186
4 186 187 188 189
3 190 191 192
3 190 192 193
3 190 193 194
3 190 194 191
4 191 192 193 194
3 195 196 197
3 195 197 198
3 195 198 199
3 195 199 196
4 196 197 198 199
3 200 201 202
3 200 202 203
3 200 203 204
3 200 204 201
4 201 202 203 204
3 205 206 207
3 205 207 208
3 205 208 209
3 205 209 206
4 206 207 208 209
3 210 211 212
3 210 212 213
3 210 213 214
3 210 214 211
4 211 212 213 214
3 215 216 217
3 215 217 218
3 215 218 219
3 215 219 216
4 216 217 218 219
3 220 221 222
3 220 222 223
3 220 223 224
3 220 224 221
4 221 222 223 224
3 225 226 227
3 225 227 228
3 225 228 229
3 225 229 226
4 226 227 228 229
3 230 231 232
3 230 232 233
3 230 233 234
3 230 234 231
4 231 232 233 234
3 235 236 237
3 235 237 238
3 235 238 239
3 235 239 236
4 236 237 238 239
3 240 241 242
3 240 242 243
3 240 243 244
3 240 244 241
4 241 242 243 244
3 245 246 247
3 245 247 248
3 245 248 249
3 245 249 246
4 246 247 248 249
3 250 251 252
3 250 252 253
3 250 253 254
3 250 254 251
4 251 252 253 254
3 255 256 257
3 255 257 258
3 255 258 259
3 255 259 256
4 256 257 258 259
3 260 261 262
3 260 262 263
3 260 263 264
3 260 264 261
4 261 262 263 264
3 265 266 267
3 265 267 268
3 265 268 269
3 265 269 266
4 266 267 268 269
3 270 271 272
3 270 272 273
3 270 273 274
3 270 274 271
4 271 272 273 274
3 275 276 277
3 275 277 278
3 275 278 279
3 275 279 276
4 276 277 278 279
3 280 281 282
3 280 282 283
3 280 283 284
3 280 284 281
4 281 282 283 284
3 285 286 287
3 285 287 288
3 285 288 289
3 285 289 286
4 286 287 288 289
3 290 291 292
3 290 292 293
3 290 293 294
3 290 294 291
4 291 292 293 294
3 295 296 297
3 295 297 298
3 295 298 299
3 295 299 296
4 296 297 298 299
3 300 301 302
3 300 302 303
3 300 303 304
3 300 304 301
4 301 302 303 304
3 305 306 307
3 305 307 308
3 305 308 309
3 305 309 306
4 306 307 308 309
3 310 311 312
3 310 312 313
3 310 313 314
3 310 314 311
4 311 312 313 314
3 315 316 317
3 315 317 318
3 315 318 319
3 315 319 316
4 316 317 318 319
