ply
format ascii 1.0
element vertex 820
property float x
property float y
property float z
element face 820
property list uchar int vertex_index
end_header
-3.52303 -0.49106 0.244125
 -4.06169 -0.862719   1.26268
 -2.91932 -0.866079   1.22847
  -2.9172 -0.104168    1.2244
 -4.05957 -0.100807   1.25861
-3.52807 -0.48712 0.275835
 -4.06415 -0.849072   1.29924
 -2.92178 -0.844022   1.26532
  -2.92558 -0.0822426    1.25089
  -4.06795 -0.0872934    1.28481
 -3.53101 -0.474489   0.31349
 -4.06807 -0.829402   1.33884
 -2.92566 -0.822939   1.30656
  -2.93054 -0.0612984     1.2863
  -4.07295 -0.0677616    1.31859
-3.53322 -0.45996 0.367453
 -4.08491 -0.833607   1.37828
 -2.94238 -0.848962   1.35418
   -2.9321 -0.0871088    1.35603
  -4.07464 -0.0717536    1.38013
 -3.53642 -0.452165  0.427971
 -4.07981 -0.820889   1.44508
 -2.93736 -0.829164    1.4144
  -2.93196 -0.0672716    1.40988
  -4.07441 -0.0589962    1.44056
 -3.54615 -0.434728  0.487197
 -4.06952 -0.824072   1.50712
 -2.92894 -0.858251   1.44309
    -2.905 -0.0969663    1.46315
  -4.04558 -0.0627879    1.52719
 -3.55843 -0.423236  0.552558
 -4.04215 -0.809388   1.59307
 -2.90353 -0.819733   1.49486
  -2.89583 -0.0579007    1.50394
  -4.03444 -0.0475556    1.60215
 -3.56387 -0.412439  0.611538
 -4.03389 -0.809551   1.65419
 -2.89638 -0.812413   1.54348
  -2.89301 -0.0506427    1.55848
  -4.03052 -0.0477811    1.66919
  -3.5649 -0.394305  0.674617
 -4.05147 -0.816994   1.69948
-2.91228 -0.81555  1.60772
  -2.91056 -0.0543541    1.64101
  -4.04976 -0.0557987    1.73277
 -3.56835 -0.386116  0.738155
 -4.04416 -0.792394   1.77463
 -2.90548 -0.774389   1.67831
  -2.91623 -0.0126939    1.69364
  -4.05491 -0.0306989    1.78996
-3.57555 -0.36593   0.8011
 -4.03318 -0.789052   1.83903
 -2.89728 -0.793328   1.71287
  -2.89049 -0.0322523     1.7482
  -4.02639 -0.0279766    1.87436
 -3.5814 -0.35755 0.869665
 -4.00219 -0.761977   1.93038
 -2.87067 -0.756078   1.76971
   -2.8721 0.00563546    1.78762
    -4.00362 -0.000263221      1.94829
  -3.5749 -0.341889  0.928671
 -4.00559 -0.735007   1.98967
-2.87306  -0.7393  1.83616
 -2.86852 0.0225137   1.84839
 -4.00104 0.0268065    2.0019
-3.56697 -0.32656 0.992854
 -4.02909 -0.714255   2.04256
 -2.89209 -0.709111    1.9268
   -2.895 0.0527901   1.93211
   -4.032 0.0476463   2.04787
 -3.55999 -0.314906   1.05578
 -4.02303 -0.679351   2.11339
 -2.88575 -0.670777   2.00066
 -2.89281 0.0909983   1.98732
 -4.03009 0.0824242   2.10005
-3.55331 -0.29375  1.11597
 -4.00544 -0.642502   2.18354
 -2.87061 -0.662875   2.04962
 -2.85887 0.0987831    2.0332
 -3.9937 0.119156  2.16712
 -3.54156 -0.285871   1.17286
 -3.96206 -0.613867   2.25976
 -2.83173 -0.638466   2.09257
-2.81976 0.122732  2.06151
-3.95008 0.147331   2.2287
 -3.52041 -0.270708   1.22499
 -3.94036 -0.613687   2.30747
 -2.8098 -0.63129  2.14099
-2.80116 0.130273  2.11916
-3.93172 0.147876  2.28564
 -3.49614 -0.257657   1.28562
 -3.92434 -0.580517   2.37105
-2.79354  -0.6153  2.20893
-2.77471 0.145721  2.17696
-3.90551 0.180505  2.33908
 -3.47093 -0.246432   1.34229
 -3.88077 -0.570035   2.43456
 -2.75153 -0.586597   2.25924
-2.74605  0.17443  2.22267
-3.87529 0.190993  2.39799
-3.44979 -0.22991  1.40341
 -3.86137 -0.571514   2.48953
 -2.73728 -0.642457    2.2957
 -2.6908 0.117998   2.2869
 -3.8149 0.188942  2.48073
-3.42364 -0.21943  1.46803
  -3.7829 -0.540539   2.57869
 -2.66636 -0.592948   2.34042
-2.63712 0.167813   2.3101
-3.75366 0.220222  2.54837
 -3.39327 -0.199692   1.53393
 -3.74937 -0.537638   2.64061
 -2.63289 -0.581047   2.40021
-2.60762 0.180194  2.38014
-3.72409 0.223603  2.62054
 -3.36551 -0.189683   1.59959
 -3.73067 -0.467065   2.72006
 -2.60944 -0.492288   2.50005
-2.60579 0.266551  2.43165
-3.72702 0.291775  2.65166
-3.34666 -0.16817  1.66192
 -3.7252 -0.48659  2.76694
 -2.60034 -0.487389   2.56477
-2.60778 0.273203  2.52035
-3.73265 0.274003  2.72251
 -3.32616 -0.154415   1.72545
-3.67847 -0.44133  2.84763
   -2.558 -0.436173   2.62244
-2.57526  0.32247  2.55394
-3.69573 0.317313  2.77913
 -3.28448 -0.142926   1.76966
  -3.6032 -0.445954   2.89764
 -2.48952 -0.429288   2.64148
 -2.5144 0.329958  2.58268
-3.62809 0.313292  2.83884
 -3.23383 -0.132864   1.81635
 -3.57606 -0.406845   2.94487
  -2.4597 -0.434581   2.70163
-2.45618 0.324081  2.63128
-3.57254 0.351817  2.87451
 -3.17896 -0.126945   1.85949
 -3.50302 -0.384922   2.99711
 -2.38993 -0.406914   2.73875
-2.39424  0.35046   2.6557
-3.50733 0.372452  2.91406
 -3.12542 -0.111205   1.90096
 -3.46833 -0.378064   3.03098
 -2.35325 -0.423014   2.78446
-2.33853 0.335387  2.71275
-3.45361 0.380336  2.95927
-3.05936 -0.11208  1.92977
 -3.41195 -0.394132    3.0531
 -2.29446 -0.432282   2.81659
-2.28169 0.326998  2.75445
-3.39918 0.365148  2.99096
 -2.98051 -0.106921   1.95294
 -3.38504 -0.418973   3.05054
 -2.26035 -0.479473   2.85661
-2.22526 0.280897  2.82291
-3.34995 0.341398  3.01683
 -2.91114 -0.111201   1.97762
 -3.35892 -0.391837   3.06688
 -2.22444 -0.417452   2.93088
-2.21515   0.3416  2.86544
-3.34963 0.367216  3.00144
  -2.84586 -0.0962907    2.00617
 -3.32705 -0.361057   3.08511
 -2.19242 -0.437189   2.97098
-2.14773 0.320943   2.9096
-3.28235 0.397075  3.02373
 -2.84594 -0.207298   1.59253
 -3.26025 -0.488015   2.69494
   -2.129 -0.484665   2.53227
-2.1418 0.27361 2.45888
-3.27305 0.270259  2.62155
 -2.81838 -0.193779   1.63137
 -3.23864 -0.479607    2.7302
 -2.10711 -0.489539   2.56981
-2.10982 0.269508   2.5037
-3.24135  0.27944  2.66409
 -2.78067 -0.186212   1.68291
 -3.23794 -0.461792   2.76951
 -2.10185 -0.478491   2.64614
-2.09849 0.280048  2.57447
-3.23458 0.296747  2.69783
 -2.74369 -0.174963   1.73313
 -3.20936 -0.465604   2.81222
 -2.07265 -0.487126   2.69558
-2.06434 0.272455  2.63643
-3.20105 0.293976  2.75307
 -2.70666 -0.164596   1.78473
  -3.2205 -0.460915   2.84015
 -2.07975 -0.483877   2.77422
-2.06757 0.276032  2.72018
-3.20833 0.298994  2.78611
 -2.65848 -0.152849   1.83211
 -3.14889 -0.434594   2.90256
 -2.00959 -0.451851   2.81374
 -2.0033 0.307111   2.7469
 -3.1426 0.324367  2.83572
 -2.60501 -0.142865   1.87756
 -3.12316 -0.405563   2.93976
-1.98192 -0.42336  2.88112
-1.97424 0.334267  2.80066
-3.11548 0.352064  2.85931
 -2.55415 -0.135806   1.91942
 -3.06941 -0.381362   2.98711
-1.92793 -0.38037   2.9304
-1.93351 0.375059  2.83128
-3.07499 0.374066  2.88798
 -2.50746 -0.125744   1.95544
-3.03338 -0.42042  3.00535
 -1.89142 -0.420797   2.95918
-1.89371 0.338534   2.8964
-3.03567 0.338911  2.94258
 -2.28224 -0.114511   2.08222
  -2.8837 -0.385311   3.09743
-1.74192 -0.36068  3.14124
-1.75479 0.395805  3.05126
-2.89657 0.371173  3.00746
-2.26166 -0.10634  2.10043
 -2.88465 -0.394151   3.09782
 -1.74415 -0.368545   3.16696
-1.75642 0.389256  3.08875
-2.89693 0.363651  3.01962
-2.23297 -0.10286  2.12755
 -2.84228 -0.392263    3.1329
 -1.70067 -0.375444   3.18414
-1.70855 0.382896  3.11074
-2.85016 0.366077   3.0595
  -2.18961 -0.0984337    2.15383
 -2.75472 -0.415545   3.17649
 -1.61222 -0.386313   3.18231
-1.63136 0.373227  3.12519
-2.77386 0.343995  3.11936
  -2.13091 -0.0953797    2.18012
 -2.71571 -0.393014   3.19756
 -1.57297 -0.398327     3.215
-1.56854 0.361317  3.15625
-2.71128 0.366629  3.13881
  -2.07223 -0.0960559    2.20769
 -2.68983 -0.402433   3.20291
 -1.54858 -0.390102   3.26285
-1.55368 0.369505  3.20369
-2.69493 0.357175  3.14374
  -2.01387 -0.0833992    2.23807
  -2.6562 -0.382984    3.2196
 -1.51636 -0.387402   3.30301
-1.50922 0.372329  3.24568
-2.64905 0.376748  3.16227
  -1.94858 -0.0833025    2.26615
 -2.60599 -0.380631   3.23834
 -1.46736 -0.399891   3.33491
-1.45004 0.360019  3.28231
-2.58868 0.379279  3.18574
 -1.88429 -0.071605   2.28676
  -2.5658 -0.396328   3.23325
 -1.42993 -0.419266   3.35761
-1.41125 0.341831  3.32741
-2.54712 0.364769  3.20305
  -1.81717 -0.0694723    2.31239
 -2.53689 -0.316921   3.25394
 -1.40691 -0.331681   3.42458
-1.38348 0.424581  3.33487
-2.51346 0.439342  3.16423
  -1.76073 -0.0587612    2.33775
 -2.52492 -0.317662   3.24037
 -1.40529 -0.316335   3.46972
-1.38815 0.440292  3.38167
-2.50778 0.438965  3.15232
  -1.69875 -0.0544646    2.36694
 -2.48879 -0.285393   3.25477
 -1.37615 -0.278037   3.51584
-1.35525 0.475574  3.40555
 -2.4679 0.468217  3.14448
  -1.63885 -0.0496122    2.38645
 -2.41701 -0.346971   3.26497
  -1.3061 -0.294064   3.52819
-1.32176 0.462827  3.44216
-2.43267  0.40992  3.17894
  -1.56942 -0.0464634    2.40711
 -2.37727 -0.329566   3.26326
 -1.27229 -0.309709   3.55448
-1.26496 0.448027  3.47502
-2.36995 0.428169   3.1838
  -1.51011 -0.0457874    2.43352
 -2.28307 -0.344717   3.31608
  -1.1724 -0.276318   3.57669
-1.19723 0.479555  3.48412
 -2.3079 0.411156  3.22351
   -1.4565 -0.0353342     2.4624
 -2.21098 -0.338416   3.35943
  -1.0905 -0.321662   3.58405
-1.08906 0.437583  3.52022
-2.20953 0.420829   3.2956
  -1.40088 -0.0346108    2.48938
 -2.14158 -0.343977   3.39569
  -1.0178 -0.328998   3.60322
-1.01713 0.430683  3.54479
-2.14092 0.415704  3.33727
   -1.3413 -0.0233929     2.5174
  -2.0917 -0.374926   3.40006
-0.971926 -0.348721   3.62725
-0.98302 0.412404  3.59414
-2.10279 0.386199  3.36694
  -1.28338 -0.0182967    2.54949
 -2.04709 -0.330463   3.43552
-0.930396 -0.298899   3.67675
-0.937904  0.460247   3.61217
 -2.0546 0.428684  3.37095
   -1.23014 -0.00735337     2.58439
 -1.98874 -0.334693   3.46933
-0.873498 -0.278516    3.7128
-0.897357   0.48019   3.64703
 -2.0126 0.424012  3.40355
  -1.17885 0.00251628    2.62062
 -1.95502 -0.335929   3.48593
-0.842123 -0.309267   3.74465
-0.850305  0.451389   3.70146
 -1.9632 0.424727  3.44274
   -1.1252 0.00577817    2.64926
  -1.9235 -0.357488   3.48382
-0.823568 -0.291453   3.78711
-0.856408  0.468353   3.74078
-1.95634 0.402318  3.43749
 -1.06568 0.0164025   2.67547
 -1.88998 -0.352835   3.48166
-0.797171 -0.310286   3.81355
-0.817639  0.450766   3.78338
-1.91045 0.408218  3.45149
-1.01104 0.022645  2.70985
  -1.8047 -0.289451   3.56918
-0.700028 -0.229447   3.85605
-0.720527  0.528041   3.77654
 -1.8252 0.468037  3.48968
-0.962763 0.0353745   2.74459
 -1.73813 -0.308805   3.60835
-0.629724  -0.24169   3.87876
-0.661107  0.517242   3.81904
-1.76951 0.450127  3.54863
 -0.91569 0.0397419   2.77668
 -1.70927 -0.298856   3.62599
-0.608183 -0.220385   3.92202
-0.643291  0.537476   3.85172
-1.74438 0.459005  3.55568
-0.847442 0.0532182    2.8164
 -1.67154 -0.309331   3.62583
 -0.58139 -0.244817   3.96289
-0.611822  0.515047   3.91587
-1.70197 0.450533  3.57881
-0.789719 0.0606646   2.85404
  -1.6902 -0.258305   3.59778
-0.637222 -0.177638   4.03472
-0.65827 0.578788  3.94579
-1.71125  0.49812  3.50885
-0.718672 0.0793013   2.91367
-1.65319 -0.26677  3.60117
-0.620436  -0.21371   4.08778
-0.633576  0.546116   4.03282
-1.66633 0.493056  3.54621
-0.488055  0.112445    3.0904
 -1.44789 -0.307762   3.69694
-0.469108 -0.170731   4.27087
-0.538717  0.585483   4.20903
 -1.5175 0.448453   3.6351
-0.397157  0.142091   3.19702
 -1.40779 -0.301524   3.69459
-0.488061 -0.184439   4.36285
-0.555193  0.573447   4.32246
-1.47492 0.456363   3.6542
-0.362681  0.152791   3.25249
 -1.36338 -0.337106   3.72614
-0.480521 -0.140405   4.42475
-0.592595  0.610006    4.3551
-1.47546 0.413306  3.65649
-0.26857 0.194116  3.43991
 -1.26244 -0.303585   3.91978
-0.373397 -0.108595   4.61099
-0.489236  0.641858   4.54828
-1.37828 0.446868  3.85707
-0.223359  0.225931    3.5588
 -1.26113 -0.272454    3.9335
 -0.454435 -0.0622916    4.71534
-0.566846  0.686455   4.63006
-1.37354 0.476293  3.84822
-0.169326  0.266824   3.74227
 -1.22631 -0.257685   4.01323
 -0.504697 -0.0318881    4.87025
-0.626256  0.714349   4.77599
-1.34787 0.488552  3.91897
-0.145808  0.292647   3.85785
  -1.2106 -0.270422   3.97999
   -0.6116 -0.0452486    4.92692
-0.744971  0.699169   4.83427
-1.34397 0.473996  3.88734
-0.14514 0.321305  3.99597
 -1.20241 -0.260225   4.09474
 -0.627597 -0.0263337    5.05447
 -0.7718 0.715829  4.95997
-1.34661 0.481938  4.00024
-0.144126  0.332555   4.03196
 -1.19239 -0.270995   4.08323
 -0.661002 -0.0351139     5.0672
-0.816467  0.704906   4.97375
-1.34785 0.469025  3.98979
-0.148703  0.362909   4.15668
 -1.19612 -0.241337   4.09707
 -0.750638 -0.0415029    5.13042
-0.899349  0.701519   5.05084
-1.34483 0.501686  4.01749
-0.143238   0.38586   4.27389
 -1.15303 -0.272954   4.16417
 -0.790889 -0.0184782    5.21787
-0.970011  0.713091   5.10276
-1.33215 0.458616  4.04905
-0.18387 0.423562  4.45937
 -1.12831 -0.283865   4.18859
-0.949282 -0.026195   5.28757
-1.14608 0.696923  5.15008
-1.32511 0.439253  4.05111
-0.196672  0.439154   4.52168
 -1.12982 -0.270398   4.21916
 -0.972603 -0.0346339    5.32635
-1.17337 0.689536  5.20066
-1.33059 0.453772  4.09346
-0.242941  0.463831    4.6664
 -1.05156 -0.316817   4.21643
  -1.09421 -0.0860743    5.33497
-1.33346 0.620538  5.18008
 -1.2908 0.389795  4.06154
-0.280378  0.469557    4.6898
 -1.07647 -0.320699   4.23429
   -1.1346 -0.0846349    5.35103
-1.37834 0.618972   5.1896
-1.32021 0.382908  4.07287
-0.354798  0.469658   4.71706
 -1.12288 -0.335137   4.23946
 -1.20204 -0.117392   5.35862
-1.46288 0.581635  5.20416
-1.38372  0.36389  4.08501
-0.41513 0.470526  4.73965
 -1.11696 -0.358725   4.20529
 -1.26141 -0.174759   5.32399
-1.54984  0.51421  5.17345
-1.40538 0.330244  4.05475
-0.495878  0.462283    4.7176
 -1.23772 -0.367342   4.24101
-1.30514  -0.1704  5.36478
-1.59842 0.519063  5.22636
  -1.531 0.322122  4.10259
-0.618529  0.452965   4.67279
 -1.35619 -0.370521   4.17937
 -1.40613 -0.215562    5.3106
-1.71236 0.473718  5.20266
-1.66242 0.318758  4.07143
-0.692503  0.421645   4.58349
 -1.43941 -0.486442   4.29495
 -1.22586 -0.299212   5.40199
-1.61886  0.35263  5.36756
-1.83241   0.1654  4.26052
-0.741491  0.407278   4.52607
 -1.52131 -0.489149   4.29359
 -1.20947 -0.318184   5.37973
-1.59636 0.338158   5.3875
 -1.9082 0.167193  4.30136
-0.796419  0.386982   4.43133
-1.62327 -0.48906  4.31043
 -1.17521 -0.314275   5.34719
-1.54002 0.353107  5.39235
-1.98809 0.178322  4.35558
-0.811914  0.370181    4.3734
 -1.63681 -0.515754   4.35295
  -1.0803 -0.324028   5.33261
-1.44573 0.340028  5.41023
-2.00223 0.148301  4.43057
-0.864052  0.355359   4.31242
 -1.68033 -0.535998   4.38256
 -1.02281 -0.338197    5.2962
-1.38223 0.323648  5.41157
-2.03975 0.125847  4.49794
-0.873365    0.3531   4.30259
 -1.69476 -0.530337   4.40555
 -1.00394 -0.334447    5.2947
-1.35307 0.331216  5.41931
 -2.0439 0.135326  4.53016
-1.01014 0.289329  4.29109
 -1.76352 -0.604424   4.60633
-0.878531 -0.381661   5.29434
-1.19888 0.280813  5.49191
 -2.08387 0.0580497    4.8039
-0.986597  0.306414   4.36397
 -1.74457 -0.614701   4.57077
-0.950366 -0.386459   5.36029
-1.31025 0.262039  5.53483
 -2.10445 0.0337969   4.74532
-0.90544 0.341628  4.52023
 -1.56945 -0.658634   4.36427
 -1.24508 -0.390861   5.42695
-1.71366 0.209884   5.4186
  -2.03802 -0.0578877    4.35592
-0.931403  0.377753   4.66749
 -1.42195 -0.669005   4.30775
 -1.44019 -0.424098   5.42394
-1.94404 0.132391   5.2936
 -1.92579 -0.112517   4.17741
-0.996737  0.398638   4.77484
 -1.18602 -0.701391   4.30595
 -1.61173 -0.480376   5.34331
  -2.11557 0.00033928    5.03412
 -1.68985 -0.220676   3.99676
-1.03105 0.390736  4.75038
 -1.28043 -0.707761   4.30669
 -1.62057 -0.469881   5.37154
 -2.13553 0.0202923   5.09755
  -1.7954 -0.217587    4.0327
-1.02727 0.384931  4.73435
 -1.34736 -0.716103   4.34575
 -1.59768 -0.434784   5.42482
 -2.11456 0.0658618   5.17439
 -1.86425 -0.215457   4.09532
-1.02976 0.379859   4.7109
 -1.40673 -0.715477   4.35893
-1.55808 -0.42256  5.45323
 -2.08279 0.0886696   5.24382
 -1.93144 -0.204247   4.14952
-1.03881  0.37525  4.67927
 -1.42567 -0.724763   4.35361
 -1.47682 -0.444506   5.46042
 -2.0295 0.057277  5.30782
-1.97836 -0.22298  4.20101
-1.05182  0.36324  4.64706
 -1.44585 -0.745146   4.36076
 -1.39464 -0.463679   5.46726
-1.96978  0.02636  5.36922
 -2.02099 -0.255107   4.26272
-1.06507 0.356293   4.6143
 -1.52081 -0.745643   4.40506
 -1.29418 -0.455932   5.48714
 -1.86753 0.0456721   5.47292
 -2.09416 -0.244039   4.39084
-1.07638 0.349051  4.57784
 -1.56817 -0.749752   4.44931
-1.18937 -0.44985  5.48505
  -1.7539 0.0584048   5.54435
  -2.1327 -0.241497   4.50861
-1.08921 0.335435  4.54545
 -1.62116 -0.751085   4.49788
 -1.10758 -0.447942   5.47283
   -1.647 0.0763405   5.59397
 -2.16058 -0.226802   4.61902
-1.10963 0.329478  4.51866
 -1.65239 -0.752652   4.53118
 -1.02883 -0.455176   5.44161
 -1.54668 0.0732381   5.62364
 -2.17024 -0.224237   4.71321
-1.13233 0.325948  4.49547
 -1.67104 -0.757743   4.52954
-0.971123 -0.479809   5.38923
 -1.47169 0.0427121   5.62784
 -2.17161 -0.235222   4.76815
-1.15609 0.321179  4.47364
 -1.72084 -0.747727   4.53881
-0.947794 -0.499993   5.34331
 -1.41304 0.0329362   5.62626
 -2.18609 -0.214798   4.82176
-1.1814  0.3189 4.44864
 -1.74265 -0.742609   4.60338
-0.857557 -0.499946   5.28449
 -1.27037 0.0402165   5.62849
 -2.15547 -0.202447   4.94738
-1.20537 0.309369  4.42605
 -1.75377 -0.738466   4.68499
-0.776688 -0.496731   5.22635
 -1.12806 0.0579674   5.61284
 -2.10514 -0.183768   5.07148
-1.23448 0.305949  4.41039
 -1.79289 -0.717439   4.73689
-0.747913  -0.51997   5.15548
 -1.02539 0.0487126    5.5799
 -2.07037 -0.148757   5.16132
-1.26722 0.308537  4.40147
 -1.82845 -0.701012    4.7642
-0.730376 -0.565694   5.05075
   -0.92372 -0.00192486     5.52542
  -2.0218 -0.137243   5.23887
-1.29986 0.306279  4.39809
-1.83863 -0.69282  4.81913
-0.714613 -0.577162   4.99058
  -0.847854 -0.00977166     5.48134
-1.97187 -0.12543  5.30989
-1.32708 0.305795  4.39311
 -1.83515 -0.690198   4.85744
-0.702532 -0.571498   4.95377
    -0.8044 0.000105123     5.44715
 -1.93702 -0.118595   5.35082
-1.35319 0.304429  4.38252
 -1.78913 -0.692631   4.91316
-0.657114 -0.535397   4.91564
-0.739112 0.0473389    5.3996
 -1.87113 -0.109895   5.39713
-1.37908 0.297478  4.37131
 -1.68423 -0.717169   4.95708
-0.573683 -0.461338   4.87088
-0.672283  0.126565   5.34541
 -1.78283 -0.129266    5.4316
-1.04386 0.337214  4.34669
 -1.83188 -0.564655   4.52391
-0.990566 -0.430495   5.28574
 -1.3117 0.217218  5.52631
 -2.15301 0.0830585   4.76448
-1.06534 0.333606  4.34392
 -1.86043 -0.558102   4.53997
 -1.03426 -0.397023   5.31308
-1.35761 0.260624  5.52159
 -2.18377 0.0995445   4.74848
-1.09701 0.333652  4.34013
 -1.92968 -0.528896    4.5087
 -1.12188 -0.400358   5.30691
-1.42714 0.268096  5.50819
-2.23494 0.139558  4.70999
-1.13615  0.33639  4.34014
 -1.97211 -0.523656   4.50519
 -1.18642 -0.376046   5.32195
-1.49779 0.296174  5.49999
-2.28348 0.148565  4.68323
-1.18047 0.336978  4.34439
 -2.01759 -0.530565   4.45551
 -1.25123 -0.414454   5.29538
-1.56846 0.249483  5.49307
-2.33483 0.133372  4.65319
-1.22748 0.333933   4.3496
 -2.05073 -0.547158   4.45774
 -1.27572 -0.432618   5.28987
 -1.5999 0.223636  5.50146
 -2.3749 0.109097  4.66933
-1.27528  0.33563  4.34666
 -2.07802 -0.563325   4.46176
 -1.26473 -0.465625   5.25876
-1.58847 0.176564  5.51039
 -2.40175 0.0788635   4.71339
-1.32368 0.329061  4.34181
 -2.11169 -0.581565   4.46647
 -1.29639 -0.465965     5.259
-1.62898 0.172711    5.508
 -2.44429 0.0571109   4.71547
 -1.3714 0.328638  4.33583
 -2.14397 -0.591456   4.48524
-1.30975 -0.46151  5.25556
  -1.644 0.174026  5.51032
 -2.47821 0.0440802      4.74
-1.41453 0.325606  4.32389
 -2.18037 -0.605038   4.43854
 -1.32167 -0.522012   5.18816
 -1.64841 0.0945314   5.49417
-2.50712 0.011505  4.74455
-1.45391  0.32065  4.30434
-2.21107 -0.61256  4.45122
 -1.32453 -0.523814     5.167
 -1.64171 0.0924504   5.48346
  -2.52826 0.00370448    4.76767
-1.49084   0.3155   4.2781
 -2.23758 -0.613373   4.49102
 -1.31966 -0.498805   5.16221
-1.62407 0.127392  5.47163
 -2.54199 0.0128241   4.80044
 -1.5288 0.306476  4.25223
 -2.29943 -0.596258   4.49086
  -1.3775 -0.488168    5.1576
-1.66462  0.15392  5.45053
-2.58656  0.04583   4.7838
-1.56686 0.302453  4.23144
-2.31421 -0.60355  4.52534
 -1.37677 -0.454086   5.16179
-1.66756 0.193759  5.43796
 -2.60499 0.0442953   4.80151
-1.60724 0.296351  4.21049
 -2.33619 -0.610202   4.54598
 -1.37387 -0.448013   5.14082
-1.65675 0.201456  5.42136
 -2.61906 0.0392672   4.82652
-1.64743  0.28963  4.18368
 -2.40397 -0.601027   4.50011
 -1.43562 -0.483357   5.09563
-1.69711 0.167978  5.39214
 -2.66546 0.0503083   4.79662
-1.69036 0.285296  4.15527
 -2.43856 -0.589403   4.53057
 -1.44906 -0.455339   5.08655
-1.69722 0.207631  5.36835
-2.68672 0.073568  4.81238
 -1.7325 0.274631  4.13687
 -2.46778 -0.552765   4.62731
 -1.41384 -0.450162   5.05729
-1.59722  0.23147  5.34413
-2.65116 0.128867  4.91415
 -1.7765 0.274919  4.12001
 -2.50303 -0.547372   4.63162
 -1.45534 -0.412431   5.06787
-1.65279  0.27547  5.32928
-2.70048 0.140529  4.89303
 -1.8284 0.271482   4.0986
 -2.58674 -0.559477     4.546
 -1.56435 -0.443717   5.04349
-1.77242 0.238121  5.31244
-2.79481 0.122361  4.81495
-1.87793 0.266099  4.07485
 -2.65911 -0.548901   4.51222
 -1.65084 -0.436625   5.03852
-1.85888 0.251783   5.2902
-2.86714 0.139507   4.7639
-1.91968 0.263667  4.04609
 -2.69711 -0.546274   4.49925
 -1.69032 -0.417494   5.02459
 -1.9025 0.274877   5.2615
-2.90929 0.146098  4.73616
-1.96008 0.252942  4.01789
 -2.73252 -0.541615   4.50549
 -1.71428 -0.407142   5.00678
-1.91751 0.291755  5.23211
-2.93575 0.157282  4.73081
-1.99779  0.25011   3.9962
  -2.7645 -0.537923   4.50305
-1.73775  -0.4025  4.98641
-1.93514 0.298884  5.20919
-2.96189 0.163461  4.72583
 -2.0354 0.248277  3.97767
 -2.77388 -0.559129   4.49584
  -1.7416 -0.401461    4.9603
-1.95098 0.294371  5.18945
-2.98326 0.136703  4.72498
-2.07287 0.243096  3.96159
 -2.80976 -0.549822   4.50383
 -1.75688 -0.419261   4.92879
-1.94069 0.279913   5.1694
-2.99357 0.149352  4.74445
-2.11206 0.242431  3.93713
  -2.8671 -0.525258   4.49059
 -1.80961 -0.417328   4.91041
-1.97443 0.288931    5.144
-3.03192 0.181001  4.72418
-2.14954 0.239256  3.91265
-2.90686 -0.50682  4.49195
 -1.84165 -0.406333   4.89371
-1.99282 0.306525  5.11622
-3.05804 0.206038  4.71446
-2.27723 0.228148  3.86262
 -3.05802 -0.552165   4.35983
 -2.00382 -0.496342   4.79771
-2.15438 0.198522  5.07162
-3.20858   0.1427  4.63374
 -2.3183 0.223641  3.84496
 -3.08653 -0.550619    4.3704
 -2.01564 -0.505803   4.76711
-2.14888 0.189727   5.0482
-3.21977  0.14491   4.6515
-2.39618 0.212226  3.79503
 -3.18767 -0.539634   4.31849
-2.13393 -0.48046  4.75704
-2.27664 0.225833  5.00465
-3.33038  0.16666   4.5661
-2.54005 0.200593  3.75277
 -3.31893 -0.549255   4.29759
 -2.25399 -0.491498    4.7084
-2.38893 0.215327  4.95884
-3.45387 0.157569  4.54803
-2.56793 0.198519  3.74031
-3.33547 -0.54055  4.31512
-2.25508  -0.4966  4.68529
-2.37111 0.212132  4.93978
-3.45149 0.168182  4.56961
-2.63286 0.201665  3.74955
 -3.37926 -0.513984   4.37923
-2.27365 -0.50564  4.66864
-2.34775  0.20576  4.93122
-3.45336 0.197417  4.64181
-2.68795 0.197119  3.72853
 -3.35926 -0.528103   4.42793
 -2.23947 -0.459478   4.64603
-2.33068 0.256921  4.88889
-3.45047 0.188296  4.67079
-2.73429 0.196466   3.7359
  -3.3585 -0.544273   4.46213
 -2.22378 -0.498452   4.59061
-2.28342 0.209958   4.8647
-3.41814 0.164137  4.73623
-2.76803 0.199181  3.73973
-3.35423 -0.52699  4.51096
 -2.21276 -0.501018   4.56159
-2.24106 0.209556  4.83511
-3.38253 0.183583  4.78448
-2.85491 0.200776  3.75077
 -3.31348 -0.510882   4.61622
 -2.17738 -0.476475   4.49664
-2.17184 0.240103  4.75551
-3.30793 0.205697  4.87509
 -2.8998 0.202287  3.76493
 -3.27452 -0.521463   4.66021
-2.16018 -0.51571   4.4064
-2.10122 0.192429  4.68135
-3.21555 0.186675  4.93515
-2.97867 0.208922  3.77182
 -3.21827 -0.484495   4.73489
-2.16572 -0.52789  4.29169
-2.03363 0.181649   4.5359
-3.08619 0.225044   4.9791
-3.01625 0.214098  3.78778
 -3.14145 -0.463612   4.78316
 -2.17616 -0.569522   4.18051
-1.96595 0.130994   4.3941
-2.93125 0.236904  4.99675
-3.06059 0.219523  3.78259
   -2.958 -0.406747   4.81361
 -2.11798 -0.499559   4.04423
-1.91241 0.221107  4.18174
-2.75242 0.313919  4.95113
-3.07526 0.225227  3.76712
 -2.92948 -0.343035   4.82616
 -2.1136 -0.46568  4.03528
-1.91486  0.26411  4.12713
-2.73074 0.386755  4.91801
3 0 1 2
3 0 2 3
3 0 3 4
3 0 4 1
4 1 2 3 4
3 5 6 7
3 5 7 8
3 5 8 9
3 5 9 6
4 6 7 8 9
3 10 11 12
3 10 12 13
3 10 13 14
3 10 14 11
4 11 12 13 14
3 15 16 17
3 15 17 18
3 15 18 19
3 15 19 16
4 16 17 18 19
3 20 21 22
3 20 22 23
3 20 23 24
3 20 24 21
4 21 22 23 24
3 25 26 27
3 25 27 28
3 25 28 29
3 25 29 26
4 26 27 28 29
3 30 31 32
3 30 32 33
3 30 33 34
3 30 34 31
4 31 32 33 34
3 35 36 37
3 35 37 38
3 35 38 39
3 35 39 36
4 36 37 38 39
3 40 41 42
3 40 42 43
3 40 43 44
3 40 44 41
4 41 42 43 44
3 45 46 47
3 45 47 48
3 45 48 49
3 45 49 46
4 46 47 48 49
3 50 51 52
3 50 52 53
3 50 53 54
3 50 54 51
4 51 52 53 54
3 55 56 57
3 55 57 58
3 55 58 59
3 55 59 56
4 56 57 58 59
3 60 61 62
3 60 62 63
3 60 63 64
3 60 64 61
4 61 62 63 64
3 65 66 67
3 65 67 68
3 65 68 69
3 65 69 66
4 66 67 68 69
3 70 71 72
3 70 72 73
3 70 73 74
3 70 74 71
4 71 72 73 74
3 75 76 77
3 75 77 78
3 75 78 79
3 75 79 76
4 76 77 78 79
3 80 81 82
3 80 82 83
3 80 83 84
3 80 84 81
4 81 82 83 84
3 85 86 87
3 85 87 88
3 85 88 89
3 85 89 86
4 86 87 88 89
3 90 91 92
3 90 92 93
3 90 93 94
3 90 94 91
4 91 92 93 94
3 95 96 97
3 95 97 98
3 95 98 99
3 95 99 96
4 96 97 98 99
3 100 101 102
3 100 102 103
3 100 103 104
3 100 104 101
4 101 102 103 104
3 105 106 107
3 105 107 108
3 105 108 109
3 105 109 106
4 106 107 108 109
3 110 111 112
3 110 112 113
3 110 113 114
3 110 114 111
4 111 112 113 114
3 115 116 117
3 115 117 118
3 115 118 119
3 115 119 116
4 116 117 118 119
3 120 121 122
3 120 122 123
3 120 123 124
3 120 124 121
4 121 122 123 124
3 125 126 127
3 125 127 128
3 125 128 129
3 125 129 126
4 126 127 128 129
3 130 131 132
3 130 132 133
3 130 133 134
3 130 134 131
4 131 132 133 134
3 135 136 137
3 135 137 138
3 135 138 139
3 135 139 136
4 136 137 138 139
3 140 141 142
3 140 142 143
3 140 143 144
3 140 144 141
4 141 142 143 144
3 145 146 147
3 145 147 148
3 145 148 149
3 145 149 146
4 146 147 148 149
3 150 151 152
3 150 152 153
3 150 153 154
3 150 154 151
4 151 152 153 154
3 155 156 157
3 155 157 158
3 155 158 159
3 155 159 156
4 156 157 158 159
3 160 161 162
3 160 162 163
3 160 163 164
3 160 164 161
4 161 162 163 164
3 165 166 167
3 165 167 168
3 165 168 169
3 165 169 166
4 166 167 168 169
3 170 171 172
3 170 172 173
3 170 173 174
3 170 174 171
4 171 172 173 174
3 175 176 177
3 175 177 178
3 175 178 179
3 175 179 176
4 176 177 178 179
3 180 181 182
3 180 182 183
3 180 183 184
3 180 184 181
4 181 182 183 184
3 185 186 187
3 185 187 188
3 185 188 189
3 185 189 186
4 186 187 188 189
3 190 191 192
3 190 192 193
3 190 193 194
3 190 194 191
4 191 192 193 194
3 195 196 197
3 195 197 198
3 195 198 199
3 195 199 196
4 196 197 198 199
3 200 201 202
3 200 202 203
3 200 203 204
3 200 204 201
4 201 202 203 204
3 205 206 207
3 205 207 208
3 205 208 209
3 205 209 206
4 206 207 208 209
3 210 211 212
3 210 212 213
3 210 213 214
3 210 214 211
4 211 212 213 214
3 215 216 217
3 215 217 218
3 215 218 219
3 215 219 216
4 216 217 218 219
3 220 221 222
3 220 222 223
3 220 223 224
3 220 224 221
4 221 222 223 224
3 225 226 227
3 225 227 228
3 225 228 229
3 225 229 226
4 226 227 228 229
3 230 231 232
3 230 232 233
3 230 233 234
3 230 234 231
4 231 232 233 234
3 235 236 237
3 235 237 238
3 235 238 239
3 235 239 236
4 236 237 238 239
3 240 241 242
3 240 242 243
3 240 243 244
3 240 244 241
4 241 242 243 244
3 245 246 247
3 245 247 248
3 245 248 249
3 245 249 246
4 246 247 248 249
3 250 251 252
3 250 252 253
3 250 253 254
3 250 254 251
4 251 252 253 254
3 255 256 257
3 255 257 258
3 255 258 259
3 255 259 256
4 256 257 258 259
3 260 261 262
3 260 262 263
3 260 263 264
3 260 264 261
4 261 262 263 264
3 265 266 267
3 265 267 268
3 265 268 269
3 265 269 266
4 266 267 268 269
3 270 271 272
3 270 272 273
3 270 273 274
3 270 274 271
4 271 272 273 274
3 275 276 277
3 275 277 278
3 275 278 279
3 275 279 276
4 276 277 278 279
3 280 281 282
3 280 282 283
3 280 283 284
3 280 284 281
4 281 282 283 284
3 285 286 287
3 285 287 288
3 285 288 289
3 285 289 286
4 286 287 288 289
3 290 291 292
3 290 292 293
3 290 293 294
3 290 294 291
4 291 292 293 294
3 295 296 297
3 295 297 298
3 295 298 299
3 295 299 296
4 296 297 298 299
3 300 301 302
3 300 302 303
3 300 303 304
3 300 304 301
4 301 302 303 304
3 305 306 307
3 305 307 308
3 305 308 309
3 305 309 306
4 306 307 308 309
3 310 311 312
3 310 312 313
3 310 313 314
3 310 314 311
4 311 312 313 314
3 315 316 317
3 315 317 318
3 315 318 319
3 315 319 316
4 316 317 318 319
3 320 321 322
3 320 322 323
3 320 323 324
3 320 324 321
4 321 322 323 324
3 325 326 327
3 325 327 328
3 325 328 329
3 325 329 326
4 326 327 328 329
3 330 331 332
3 330 332 333
3 330 333 334
3 330 334 331
4 331 332 333 334
3 335 336 337
3 335 337 338
3 335 338 339
3 335 339 336
4 336 337 338 339
3 340 341 342
3 340 342 343
3 340 343 344
3 340 344 341
4 341 342 343 344
3 345 346 347
3 345 347 348
3 345 348 349
3 345 349 346
4 346 347 348 349
3 350 351 352
3 350 352 353
3 350 353 354
3 350 354 351
4 351 352 353 354
3 355 356 357
3 355 357 358
3 355 358 359
3 355 359 356
4 356 357 358 359
3 360 361 362
3 360 362 363
3 360 363 364
3 360 364 361
4 361 362 363 364
3 365 366 367
3 365 367 368
3 365 368 369
3 365 369 366
4 366 367 368 369
3 370 371 372
3 370 372 373
3 370 373 374
3 370 374 371
4 371 372 373 374
3 375 376 377
3 375 377 378
3 375 378 379
3 375 379 376
4 376 377 378 379
3 380 381 382
3 380 382 383
3 380 383 384
3 380 384 381
4 381 382 383 384
3 385 386 387
3 385 387 388
3 385 388 389
3 385 389 386
4 386 387 388 389
3 390 391 392
3 390 392 393
3 390 393 394
3 390 394 391
4 391 392 393 394
3 395 396 397
3 395 397 398
3 395 398 399
3 395 399 396
4 396 397 398 399
3 400 401 402
3 400 402 403
3 400 403 404
3 400 404 401
4 401 402 403 404
3 405 406 407
3 405 407 408
3 405 408 409
3 405 409 406
4 406 407 408 409
3 410 411 412
3 410 412 413
3 410 413 414
3 410 414 411
4 411 412 413 414
3 415 416 417
3 415 417 418
3 415 418 419
3 415 419 416
4 416 417 418 419
3 420 421 422
3 420 422 423
3 420 423 424
3 420 424 421
4 421 422 423 424
3 425 426 427
3 425 427 428
3 425 428 429
3 425 429 426
4 426 427 428 429
3 430 431 432
3 430 432 433
3 430 433 434
3 430 434 431
4 431 432 433 434
3 435 436 437
3 435 437 438
3 435 438 439
3 435 439 436
4 436 437 438 439
3 440 441 442
3 440 442 443
3 440 443 444
3 440 444 441
4 441 442 443 444
3 445 446 447
3 445 447 448
3 445 448 449
3 445 449 446
4 446 447 448 449
3 450 451 452
3 450 452 453
3 450 453 454
3 450 454 451
4 451 452 453 454
3 455 456 457
3 455 457 458
3 455 458 459
3 455 459 456
4 456 457 458 459
3 460 461 462
3 460 462 463
3 460 463 464
3 460 464 461
4 461 462 463 464
3 465 466 467
3 465 467 468
3 465 468 469
3 465 469 466
4 466 467 468 469
3 470 471 472
3 470 472 473
3 470 473 474
3 470 474 471
4 471 472 473 474
3 475 476 477
3 475 477 478
3 475 478 479
3 475 479 476
4 476 477 478 479
3 480 481 482
3 480 482 483
3 480 483 484
3 480 484 481
4 481 482 483 484
3 485 486 487
3 485 487 488
3 485 488 489
3 485 489 486
4 486 487 488 489
3 490 491 492
3 490 492 493
3 490 493 494
3 490 494 491
4 491 492 493 494
3 495 496 497
3 495 497 498
3 495 498 499
3 495 499 496
4 496 497 498 499
3 500 501 502
3 500 502 503
3 500 503 504
3 500 504 501
4 501 502 503 504
3 505 506 507
3 505 507 508
3 505 508 509
3 505 509 506
4 506 507 508 509
3 510 511 512
3 510 512 513
3 510 513 514
3 510 514 511
4 511 512 513 514
3 515 516 517
3 515 517 518
3 515 518 519
3 515 519 516
4 516 517 518 519
3 520 521 522
3 520 522 523
3 520 523 524
3 520 524 521
4 521 522 523 524
3 525 526 527
3 525 527 528
3 525 528 529
3 525 529 526
4 526 527 528 529
3 530 531 532
3 530 532 533
3 530 533 534
3 530 534 531
4 531 532 533 534
3 535 536 537
3 535 537 538
3 535 538 539
3 535 539 536
4 536 537 538 539
3 540 541 542
3 540 542 543
3 540 543 544
3 540 544 541
4 541 542 543 544
3 545 546 547
3 545 547 548
3 545 548 549
3 545 549 546
4 546 547 548 549
3 550 551 552
3 550 552 553
3 550 553 554
3 550 554 551
4 551 552 553 554
3 555 556 557
3 555 557 558
3 555 558 559
3 555 559 556
4 556 557 558 559
3 560 561 562
3 560 562 563
3 560 563 564
3 560 564 561
4 561 562 563 564
3 565 566 567
3 565 567 568
3 565 568 569
3 565 569 566
4 566 567 568 569
3 570 571 572
3 570 572 573
3 570 573 574
3 570 574 571
4 571 572 573 574
3 575 576 577
3 575 577 578
3 575 578 579
3 575 579 576
4 576 577 578 579
3 580 581 582
3 580 582 583
3 580 583 584
3 580 584 581
4 581 582 583 584
3 585 586 587
3 585 587 588
3 585 588 589
3 585 589 586
4 586 587 588 589
3 590 591 592
3 590 592 593
3 590 593 594
3 590 594 591
4 591 592 593 594
3 595 596 597
3 595 597 598
3 595 598 599
3 595 599 596
4 596 597 598 599
3 600 601 602
3 600 602 603
3 600 603 604
3 600 604 601
4 601 602 603 604
3 605 606 607
3 605 607 608
3 605 608 609
3 605 609 606
4 606 607 608 609
3 610 611 612
3 610 612 613
3 610 613 614
3 610 614 611
4 611 612 613 614
3 615 616 617
3 615 617 618
3 615 618 619
3 615 619 616
4 616 617 618 619
3 620 621 622
3 620 622 623
3 620 623 624
3 620 624 621
4 621 622 623 624
3 625 626 627
3 625 627 628
3 625 628 629
3 625 629 626
4 626 627 628 629
3 630 631 632
3 630 632 633
3 630 633 634
3 630 634 631
4 631 632 633 634
3 635 636 637
3 635 637 638
3 635 638 639
3 635 639 636
4 636 637 638 639
3 640 641 642
3 640 642 643
3 640 643 644
3 640 644 641
4 641 642 643 644
3 645 646 647
3 645 647 648
3 645 648 649
3 645 649 646
4 646 647 648 649
3 650 651 652
3 650 652 653
3 650 653 654
3 650 654 651
4 651 652 653 654
3 655 656 657
3 655 657 658
3 655 658 659
3 655 659 656
4 656 657 658 659
3 660 661 662
3 660 662 663
3 660 663 664
3 660 664 661
4 661 662 663 664
3 665 666 667
3 665 667 668
3 665 668 669
3 665 669 666
4 666 667 668 669
3 670 671 672
3 670 672 673
3 670 673 674
3 670 674 671
4 671 672 673 674
3 675 676 677
3 675 677 678
3 675 678 679
3 675 679 676
4 676 677 678 679
3 680 681 682
3 680 682 683
3 680 683 684
3 680 684 681
4 681 682 683 684
3 685 686 687
3 685 687 688
3 685 688 689
3 685 689 686
4 686 687 688 689
3 690 691 692
3 690 692 693
3 690 693 694
3 690 694 691
4 691 692 693 694
3 695 696 697
3 695 697 698
3 695 698 699
3 695 699 696
4 696 697 698 699
3 700 701 702
3 700 702 703
3 700 703 704
3 700 704 701
4 701 702 703 704
3 705 706 707
3 705 707 708
3 705 708 709
3 705 709 706
4 706 707 708 709
3 710 711 712
3 710 712 713
3 710 713 714
3 710 714 711
4 711 712 713 714
3 715 716 717
3 715 717 718
3 715 718 719
3 715 719 716
4 716 717 718 719
3 720 721 722
3 720 722 723
3 720 723 724
3 720 724 721
4 721 722 723 724
3 725 726 727
3 725 727 728
3 725 728 729
3 725 729 726
4 726 727 728 729
3 730 731 732
3 730 732 733
3 730 733 734
3 730 734 731
4 731 732 733 734
3 735 736 737
3 735 737 738
3 735 738 739
3 735 739 736
4 736 737 738 739
3 740 741 742
3 740 742 743
3 740 743 744
3 740 744 741
4 741 742 743 744
3 745 746 747
3 745 747 748
3 745 748 749
3 745 749 746
4 746 747 748 749
3 750 751 752
3 750 752 753
3 750 753 754
3 750 754 751
4 751 752 753 754
3 755 756 757
3 755 757 758
3 755 758 759
3 755 759 756
4 756 757 758 759
3 760 761 762
3 760 762 763
3 760 763 764
3 760 764 761
4 761 762 763 764
3 765 766 767
3 765 767 768
3 765 768 769
3 765 769 766
4 766 767 768 769
3 770 771 772
3 770 772 773
3 770 773 774
3 770 774 771
4 771 772 773 774
3 775 776 777
3 775 777 778
3 775 778 779
3 775 779 776
4 776 777 778 779
3 780 781 782
3 780 782 783
3 780 783 784
3 780 784 781
4 781 782 783 784
3 785 786 787
3 785 787 788
3 785 788 789
3 785 789 786
4 786 787 788 789
3 790 791 792
3 790 792 793
3 790 793 794
3 790 794 791
4 791 792 793 794
3 795 796 797
3 795 797 798
3 795 798 799
3 795 799 796
4 796 797 798 799
3 800 801 802
3 800 802 803
3 800 803 804
3 800 804 801
4 801 802 803 804
3 805 806 807
3 805 807 808
3 805 808 809
3 805 809 806
4 806 807 808 809
3 810 811 812
3 810 812 813
3 810 813 814
3 810 814 811
4 811 812 813 814
3 815 816 817
3 815 817 818
3 815 818 819
3 815 819 816
4 816 817 818 819
