ply
format ascii 1.0
element vertex 335
property float x
property float y
property float z
element face 335
property list uchar int vertex_index
end_header
 3.73926  1.47811 -1.15564
   2.4384   1.66265 -0.952553
   3.0166  0.393895 -0.895917
   3.61115   0.700769 -0.0911393
  3.03296   1.96953 -0.147775
  3.5572  1.81832 -1.33522
 2.24502  1.81173 -1.12155
 3.01078 0.649878 -1.01683
  3.55758    1.0807 -0.235332
  2.79182   2.24256 -0.340051
 3.11798  1.94148 -2.26628
 1.87333  1.82476 -1.81379
  2.7795 0.765569 -1.74871
 3.39805  1.33316 -1.12376
 2.49188  2.39235 -1.18885
 2.77673  2.29946 -2.49688
 1.58921  1.95472 -2.00854
 2.68138  1.08743 -1.96106
 3.19715  1.76994 -1.35816
 2.10499  2.63723 -1.40563
 2.39874  2.41752 -2.49265
 1.28736  1.90199 -1.97632
 2.50238  1.21708 -1.93283
 2.91411  1.98436 -1.35222
 1.69909  2.66926 -1.39571
 1.86489  2.56933 -2.50891
0.856535  1.89279 -1.96757
 2.16426  1.40664 -1.93994
 2.46053  2.23574 -1.37412
  1.1528  2.72189 -1.40175
  1.2617  2.54237 -2.51687
 0.37832  1.73075 -1.94376
 1.74419    1.445 -1.94398
 1.92662  2.31657 -1.39405
0.560747  2.60232 -1.39383
0.842761  2.51457  -2.5363
0.0847645   1.58845  -1.95728
 1.47542  1.47925 -1.99495
 1.55967  2.35864 -1.43378
0.169021  2.46784 -1.39611
0.43671 2.46255 -2.5645
-0.249157    1.4742  -1.99858
  1.1461   1.4796 -2.02065
 1.15165   2.3598 -1.45448
-0.243608    2.3544  -1.43241
0.13056 2.14193 -2.5651
-0.387202    1.0678  -1.97715
0.988113  1.30338 -1.99357
0.843436  2.18588 -1.44988
-0.531879    1.9503  -1.43346
-0.195079   1.84489  -2.56817
-0.697176  0.792898  -1.92885
0.676826  1.03028 -1.98388
 0.54149  1.93252 -1.47108
-0.832512   1.69514  -1.41604
-0.512667     1.626  -2.55728
-0.875092  0.526158  -1.90419
0.460134 0.923014 -1.98748
0.229582  1.80617 -1.47541
-1.10564  1.40932 -1.39213
-0.954592   1.47556  -2.58013
-1.13125 0.338884 -1.91358
0.125292 0.935339 -2.02586
-0.228562   1.77708  -1.51439
 -1.4851  1.18062 -1.40211
-1.53456  1.34598  -2.6373
-1.47239  0.17517 -2.01051
-0.351911  0.996271  -2.14307
-0.832054   1.74132  -1.58657
-1.95254 0.920221 -1.45401
-1.78859  1.13905 -2.63056
   -1.51594 -0.00109106    -2.00345
-0.562498   1.00923  -2.13553
-1.16992  1.65515  -1.5795
-2.12336 0.644824 -1.44742
 -2.1393 0.609379 -2.58951
 -1.69019 -0.461569  -1.94228
-0.907298  0.683072  -2.09762
-1.60773  1.23631 -1.55113
 -2.39063 0.0916694  -1.39579
-2.45889   0.3133 -2.63421
 -1.89677 -0.723746  -2.02095
-1.21783 0.483417 -2.19144
 -1.9382 0.970781  -1.6093
 -2.61714 -0.236381  -1.43882
  -2.60632 -0.0220207   -2.62911
 -1.84496 -0.942947  -2.04623
-1.40679 0.371164 -2.21469
-2.18894  0.70982 -1.60733
 -2.62711 -0.604291  -1.43887
 -2.89224 -0.300579  -2.65928
-1.98069 -1.09553 -2.10732
-1.76208 0.273977   -2.262
-2.57461 0.474649 -1.63362
 -2.79322 -0.894857  -1.47894
 -2.84263 -0.659089  -2.63466
-1.84314 -1.33038 -2.07081
  -1.7964 0.0547724  -2.23341
-2.63256 0.155916 -1.61218
-2.67931 -1.22923 -1.44958
-2.86526  -1.0809 -2.60786
 -1.7412 -1.55738 -2.08155
 -1.96709 -0.186345     -2.21
-2.79137 -0.26215 -1.56957
-2.56548 -1.63318 -1.44112
-2.64046 -1.40292 -2.57638
-1.48645 -1.75253 -2.01641
 -1.84924 -0.414324  -2.17408
 -2.67668 -0.565266  -1.55127
 -2.3139 -1.90347 -1.39361
-2.57012 -1.97107 -2.58239
-1.34197 -2.06086 -2.08128
 -1.99022 -0.832684  -2.21769
-2.73457 -1.15194 -1.55486
-2.08632 -2.38012 -1.41845
-2.05617 -2.37244 -2.51875
-0.830835  -2.20546   -2.0307
-1.72568 -1.14089 -2.14557
-2.37765 -1.61705 -1.47958
-1.48281 -2.68162 -1.36471
-1.84723 -2.98188 -2.56774
-0.642745   -2.6121  -2.14346
-1.70503  -1.7098 -2.21166
-2.23512 -2.28108 -1.51311
-1.17284 -3.18338 -1.44491
-1.35063  -3.2991 -2.55597
-0.218442  -2.74006  -2.13986
 -1.3934 -2.00029 -2.27944
-1.85483 -2.59615 -1.55324
-0.679875  -3.33592  -1.41366
-1.05911 -3.34773 -2.53006
0.00271171   -2.67232   -2.10126
-1.24913 -2.06846 -2.22583
 -1.6384 -2.72838 -1.51287
-0.386562  -3.33224  -1.38831
-0.582409  -3.36166  -2.78854
0.374368 -2.54567 -2.35698
-0.958336  -2.13859   -2.4308
-1.22187 -2.87533 -1.73574
0.110831  -3.2824 -1.66192
-0.519148  -3.30265  -2.77789
0.469691 -2.55484 -2.29779
-0.836158  -2.07179  -2.39098
-1.15787 -2.81323 -1.72607
0.147977 -3.29628 -1.63288
0.253591  -2.9011 -2.68175
 1.09499 -1.99544 -2.19252
-0.279726  -1.76307  -2.25088
-0.443602  -2.57047  -1.60544
0.931118 -2.80284 -1.54709
0.887105 -2.73618 -2.62078
 1.45528 -1.63959 -2.12864
0.0685403  -1.78383  -2.18697
0.127159 -2.60744 -1.54387
  1.5139  -2.4632 -1.48555
 1.30285 -2.33422 -2.52743
 1.74531 -1.22691 -1.93954
0.385276 -1.53429  -1.9951
0.558215 -2.40086 -1.43431
 1.91825 -2.09348 -1.37875
 1.55173 -1.71707 -2.44447
  1.78607 -0.603293  -1.75737
 0.50977 -1.16213  -1.8349
0.859183 -2.02618 -1.35881
 2.13548 -1.46734 -1.28128
 1.95025 -1.37742 -2.43208
  2.01608 -0.251553  -1.72808
 0.834842 -0.988242  -1.82412
 1.30271 -1.79938 -1.35669
 2.48395 -1.06269 -1.26065
 2.34283 -1.05984 -2.48575
  2.07935 0.0640749  -1.82627
  1.15313 -0.977038  -1.90013
 1.82138 -1.60714 -1.39838
   2.7476 -0.566027  -1.32452
  2.58832 -0.469768  -2.49206
 1.96742 0.506867 -1.83769
  1.46828 -0.796118  -1.85628
 2.33398 -1.13461 -1.37531
 2.83312 0.168379 -1.35672
  2.71927 -0.191905  -2.55597
 1.86768  0.62493 -1.94352
  1.68739 -0.758813   -1.9403
  2.59298 -0.875613  -1.42884
 2.77327 0.508131 -1.43205
 2.67974 0.333152 -2.77227
 1.76693  1.02572 -2.09799
  1.71145 -0.365598  -2.18972
 2.63086 -0.43491 -1.69453
 2.68634 0.956408  -1.6028
 2.64621  0.86044 -2.82503
 1.6387  1.3788 -2.1295
     1.81582 -0.000395783     -2.24656
  2.73989 0.0770928  -1.76135
 2.56277  1.45629 -1.64429
 2.78889  1.60496 -3.01314
 1.66842  1.79841 -2.32419
 2.21625 0.525856 -2.49081
  3.0772 0.829483 -1.97904
 2.52937  2.10203 -1.81242
 2.47439  1.96443 -3.07491
 1.33054  1.82916 -2.41096
 2.29099 0.817033 -2.43066
 2.97319  1.45522 -1.95878
 2.01273  2.46734 -1.93908
 2.03214  2.24748 -3.05471
0.950992  1.81828 -2.41095
  2.1408  1.08916 -2.41309
 2.62643  1.88022 -1.92965
 1.43663  2.60934 -1.92751
1.58895 1.87954 -3.0234
0.547829   1.3866 -2.35962
 1.78583 0.742708 -2.36455
    2.22  1.57393 -1.89991
0.982006  2.21782 -1.89498
   1.203  1.33344 -2.20852
0.242777 0.741207 -1.50513
 1.55498 0.266511 -1.49932
 1.87986  1.16967 -1.08208
0.567651  1.64437 -1.08789
0.965021 0.751903 -1.88956
  0.219266 -0.0083529   -1.09371
  1.60365 -0.165528  -1.17145
  1.73442  0.809089 -0.813184
 0.350037  0.966264 -0.735441
0.952476 0.122334 -1.69383
 0.339084 -0.479405 -0.679346
  1.73049  -0.44909 -0.780942
  1.71235  0.595428 -0.717814
 0.320936  0.565113 -0.616218
0.508861 0.110356 -1.56569
-0.107063 -0.505169 -0.561054
  1.28421 -0.487061 -0.667286
  1.27705  0.556124 -0.583337
 -0.11423  0.538016 -0.477105
0.228498  0.10335 -1.57018
-0.427815 -0.499091 -0.583348
  0.96523 -0.525428 -0.660749
 0.990048  0.516804 -0.568719
-0.402997  0.543141 -0.491318
-0.137654  0.134968  -1.59984
-0.808981 -0.515334 -0.654353
 0.585658 -0.523809 -0.700933
  0.59651  0.513825 -0.564804
-0.798129    0.5223 -0.518224
-0.580596  0.133249  -1.65369
 -1.23836 -0.550865 -0.722633
 0.156194 -0.524096 -0.764731
 0.141019  0.510781 -0.609383
 -1.25353  0.484012 -0.567285
-0.933202  0.313513  -1.80938
  -1.4454 -0.515644 -0.905124
-0.0719831  -0.285175  -0.993855
-0.226836  0.724812 -0.767404
 -1.60025  0.494343 -0.678673
-1.41945 0.242409 -1.62091
 -1.85602 -0.546572 -0.643957
-0.494697 -0.319225 -0.849811
-0.635597  0.699627 -0.656364
 -1.99692   0.47228 -0.450511
  -1.38437 0.00482718   -0.85856
  -1.8682 -0.613131  0.214551
 -0.495655  -0.469941 0.00745454
-0.598612  0.570896 0.0447551
-1.97115 0.427706 0.251852
  -1.40154 -0.0143451   0.245755
 -1.98792 -0.668353   1.24373
-0.599227 -0.572428   1.14578
-0.664838  0.468297   1.23477
-2.05353 0.372372  1.33273
  -1.05544 0.00149764     0.1902
 -1.66016 -0.608257    1.2051
-0.269294 -0.549565   1.10863
-0.309315  0.494627   1.16691
-1.70018 0.435934  1.26338
-0.647057 0.0188079 0.0501569
 -1.30914 -0.654388  0.986091
0.0850691 -0.597631  0.971678
0.0441165  0.440473   1.09816
 -1.3501 0.383716  1.11257
 0.0612203 0.00334307  -0.146019
-0.645908  -0.52575   0.84774
 0.749489 -0.527199  0.858978
0.750567 0.519382 0.860132
-0.64483 0.520831 0.848894
 0.381731 0.0118557 -0.201483
-0.275626 -0.543819  0.811746
  1.11891 -0.522091  0.766338
 1.10317 0.524227 0.783823
-0.29136 0.502499  0.82923
 0.969022 0.0370363 -0.233422
 0.365847 -0.503717  0.820755
  1.75635 -0.429981    0.7295
 1.69953 0.614837 0.708029
0.309033 0.541102 0.799285
   1.7356 0.0231796   0.40351
0.617513 0.726312 0.555192
 0.626152 -0.666086  0.646905
   1.2694 -0.607853   1.47042
 1.26076 0.784546   1.3787
     2.638   0.158451 -0.0161403
 1.47174 0.756762 0.206103
  1.59302 -0.633382  0.198841
  2.24966 -0.580344   1.01207
 2.12839 0.809799  1.01933
 -2.81704 -0.118015  -1.19378
 -1.76603 -0.829283  -0.79756
 -1.73475  0.565241 -0.837394
  -2.5033  0.602741 -0.127987
 -2.53458 -0.791782 -0.088153
  -2.71394 -0.0940051   0.163545
 -2.00576 -0.592469   1.17228
 -1.53707  -0.62982 -0.141566
 -1.53884  0.416319 -0.171938
-2.00753 0.453671  1.14191
  1.47997    2.5671 0.0302325
0.822048  1.43119 0.240873
 2.21661  1.47962 0.230132
 2.2004 2.12841  1.0512
0.805838  2.07997  1.06194
0.749676  2.42229 -0.10242
 0.296276   1.18454 0.0705839
 1.66025  1.47723 0.104762
 1.50657  2.09654 0.934322
0.142593  1.80385 0.900144
-1.19752  2.21023 -0.64538
 -1.35468   0.95465 -0.237534
-0.0896223    1.52522  -0.383623
-0.324412   2.23365  0.350089
-1.58947  1.66308 0.496178
 -2.50774   1.02992 -0.846025
  -1.90596 -0.0608231  -0.381641
 -1.19791   1.11363 -0.639722
 -1.76612   1.61484 0.0822624
-2.47416 0.440387 0.340343
3 0 1 2
3 0 2 3
3 0 3 4
3 0 4 1
4 1 2 3 4
3 5 6 7
3 5 7 8
3 5 8 9
3 5 9 6
4 6 7 8 9
3 10 11 12
3 10 12 13
3 10 13 14
3 10 14 11
4 11 12 13 14
3 15 16 17
3 15 17 18
3 15 18 19
3 15 19 16
4 16 17 18 19
3 20 21 22
3 20 22 23
3 20 23 24
3 20 24 21
4 21 22 23 24
3 25 26 27
3 25 27 28
3 25 28 29
3 25 29 26
4 26 27 28 29
3 30 31 32
3 30 32 33
3 30 33 34
3 30 34 31
4 31 32 33 34
3 35 36 37
3 35 37 38
3 35 38 39
3 35 39 36
4 36 37 38 39
3 40 41 42
3 40 42 43
3 40 43 44
3 40 44 41
4 41 42 43 44
3 45 46 47
3 45 47 48
3 45 48 49
3 45 49 46
4 46 47 48 49
3 50 51 52
3 50 52 53
3 50 53 54
3 50 54 51
4 51 52 53 54
3 55 56 57
3 55 57 58
3 55 58 59
3 55 59 56
4 56 57 58 59
3 60 61 62
3 60 62 63
3 60 63 64
3 60 64 61
4 61 62 63 64
3 65 66 67
3 65 67 68
3 65 68 69
3 65 69 66
4 66 67 68 69
3 70 71 72
3 70 72 73
3 70 73 74
3 70 74 71
4 71 72 73 74
3 75 76 77
3 75 77 78
3 75 78 79
3 75 79 76
4 76 77 78 79
3 80 81 82
3 80 82 83
3 80 83 84
3 80 84 81
4 81 82 83 84
3 85 86 87
3 85 87 88
3 85 88 89
3 85 89 86
4 86 87 88 89
3 90 91 92
3 90 92 93
3 90 93 94
3 90 94 91
4 91 92 93 94
3 95 96 97
3 95 97 98
3 95 98 99
3 95 99 96
4 96 97 98 99
3 100 101 102
3 100 102 103
3 100 103 104
3 100 104 101
4 101 102 103 104
3 105 106 107
3 105 107 108
3 105 108 109
3 105 109 106
4 106 107 108 109
3 110 111 112
3 110 112 113
3 110 113 114
3 110 114 111
4 111 112 113 114
3 115 116 117
3 115 117 118
3 115 118 119
3 115 119 116
4 116 117 118 119
3 120 121 122
3 120 122 123
3 120 123 124
3 120 124 121
4 121 122 123 124
3 125 126 127
3 125 127 128
3 125 128 129
3 125 129 126
4 126 127 128 129
3 130 131 132
3 130 132 133
3 130 133 134
3 130 134 131
4 131 132 133 134
3 135 136 137
3 135 137 138
3 135 138 139
3 135 139 136
4 136 137 138 139
3 140 141 142
3 140 142 143
3 140 143 144
3 140 144 141
4 141 142 143 144
3 145 146 147
3 145 147 148
3 145 148 149
3 145 149 146
4 146 147 148 149
3 150 151 152
3 150 152 153
3 150 153 154
3 150 154 151
4 151 152 153 154
3 155 156 157
3 155 157 158
3 155 158 159
3 155 159 156
4 156 157 158 159
3 160 161 162
3 160 162 163
3 160 163 164
3 160 164 161
4 161 162 163 164
3 165 166 167
3 165 167 168
3 165 168 169
3 165 169 166
4 166 167 168 169
3 170 171 172
3 170 172 173
3 170 173 174
3 170 174 171
4 171 172 173 174
3 175 176 177
3 175 177 178
3 175 178 179
3 175 179 176
4 176 177 178 179
3 180 181 182
3 180 182 183
3 180 183 184
3 180 184 181
4 181 182 183 184
3 185 186 187
3 185 187 188
3 185 188 189
3 185 189 186
4 186 187 188 189
3 190 191 192
3 190 192 193
3 190 193 194
3 190 194 191
4 191 192 193 194
3 195 196 197
3 195 197 198
3 195 198 199
3 195 199 196
4 196 197 198 199
3 200 201 202
3 200 202 203
3 200 203 204
3 200 204 201
4 201 202 203 204
3 205 206 207
3 205 207 208
3 205 208 209
3 205 209 206
4 206 207 208 209
3 210 211 212
3 210 212 213
3 210 213 214
3 210 214 211
4 211 212 213 214
3 215 216 217
3 215 217 218
3 215 218 219
3 215 219 216
4 216 217 218 219
3 220 221 222
3 220 222 223
3 220 223 224
3 220 224 221
4 221 222 223 224
3 225 226 227
3 225 227 228
3 225 228 229
3 225 229 226
4 226 227 228 229
3 230 231 232
3 230 232 233
3 230 233 234
3 230 234 231
4 231 232 233 234
3 235 236 237
3 235 237 238
3 235 238 239
3 235 239 236
4 236 237 238 239
3 240 241 242
3 240 242 243
3 240 243 244
3 240 244 241
4 241 242 243 244
3 245 246 247
3 245 247 248
3 245 248 249
3 245 249 246
4 246 247 248 249
3 250 251 252
3 250 252 253
3 250 253 254
3 250 254 251
4 251 252 253 254
3 255 256 257
3 255 257 258
3 255 258 259
3 255 259 256
4 256 257 258 259
3 260 261 262
3 260 262 263
3 260 263 264
3 260 264 261
4 261 262 263 264
3 265 266 267
3 265 267 268
3 265 268 269
3 265 269 266
4 266 267 268 269
3 270 271 272
3 270 272 273
3 270 273 274
3 270 274 271
4 271 272 273 274
3 275 276 277
3 275 277 278
3 275 278 279
3 275 279 276
4 276 277 278 279
3 280 281 282
3 280 282 283
3 280 283 284
3 280 284 281
4 281 282 283 284
3 285 286 287
3 285 287 288
3 285 288 289
3 285 289 286
4 286 287 288 289
3 290 291 292
3 290 292 293
3 290 293 294
3 290 294 291
4 291 292 293 294
3 295 296 297
3 295 297 298
3 295 298 299
3 295 299 296
4 296 297 298 299
3 300 301 302
3 300 302 303
3 300 303 304
3 300 304 301
4 301 302 303 304
3 305 306 307
3 305 307 308
3 305 308 309
3 305 309 306
4 306 307 308 309
3 310 311 312
3 310 312 313
3 310 313 314
3 310 314 311
4 311 312 313 314
3 315 316 317
3 315 317 318
3 315 318 319
3 315 319 316
4 316 317 318 319
3 320 321 322
3 320 322 323
3 320 323 324
3 320 324 321
4 321 322 323 324
3 325 326 327
3 325 327 328
3 325 328 329
3 325 329 326
4 326 327 328 329
3 330 331 332
3 330 332 333
3 330 333 334
3 330 334 331
4 331 332 333 334
